<svg width="341" height="51" viewBox="0 0 341 51" fill="none" xmlns="http://www.w3.org/2000/svg">
<path d="M91.9531 50V4.18182H124.169V14.2045H104.392V22.0795H122.2V32.1023H104.392V50H91.9531ZM128.923 50V15.6364H141.273V50H128.923ZM135.098 12.0568C133.427 12.0568 131.996 11.505 130.802 10.4013C129.609 9.29758 129.013 7.97017 129.013 6.41903C129.013 4.8679 129.609 3.54048 130.802 2.43679C131.996 1.3331 133.427 0.78125 135.098 0.78125C136.783 0.78125 138.215 1.3331 139.393 2.43679C140.586 3.54048 141.183 4.8679 141.183 6.41903C141.183 7.97017 140.586 9.29758 139.393 10.4013C138.215 11.505 136.783 12.0568 135.098 12.0568ZM159.914 30.6705V50H147.565V15.6364H159.288V22.169H159.646C160.391 19.9915 161.704 18.2837 163.583 17.0458C165.477 15.8079 167.685 15.1889 170.205 15.1889C172.636 15.1889 174.747 15.7482 176.537 16.8668C178.341 17.9705 179.736 19.4918 180.72 21.4308C181.72 23.3697 182.212 25.5845 182.197 28.0753V50H169.847V30.6705C169.862 28.9702 169.43 27.6353 168.55 26.6658C167.685 25.6964 166.477 25.2116 164.926 25.2116C163.911 25.2116 163.024 25.4354 162.263 25.8828C161.517 26.3153 160.943 26.9418 160.541 27.7621C160.138 28.5675 159.929 29.5369 159.914 30.6705ZM197.869 50.5369C195.676 50.5369 193.737 50.179 192.052 49.4631C190.381 48.7322 189.069 47.6286 188.114 46.152C187.16 44.6754 186.682 42.7962 186.682 40.5142C186.682 38.6349 187.003 37.0316 187.644 35.7042C188.286 34.3619 189.181 33.2656 190.329 32.4155C191.478 31.5653 192.812 30.9165 194.334 30.4691C195.87 30.0217 197.525 29.7308 199.3 29.5966C201.224 29.4474 202.768 29.2685 203.931 29.0597C205.11 28.8359 205.96 28.5302 206.482 28.1424C207.004 27.7397 207.265 27.2102 207.265 26.554V26.4645C207.265 25.5696 206.922 24.8835 206.236 24.4062C205.55 23.929 204.67 23.6903 203.596 23.6903C202.418 23.6903 201.456 23.9513 200.71 24.4734C199.979 24.9805 199.539 25.7635 199.39 26.8224H188.025C188.174 24.7344 188.838 22.8104 190.016 21.0504C191.209 19.2756 192.947 17.8587 195.229 16.7997C197.511 15.7259 200.359 15.1889 203.775 15.1889C206.236 15.1889 208.443 15.4798 210.397 16.0614C212.351 16.6282 214.014 17.4261 215.386 18.4553C216.758 19.4695 217.802 20.6626 218.518 22.0348C219.249 23.392 219.614 24.8686 219.614 26.4645V50H208.07V45.1676H207.802C207.116 46.4503 206.28 47.4869 205.296 48.2773C204.327 49.0678 203.215 49.642 201.963 50C200.725 50.358 199.36 50.5369 197.869 50.5369ZM201.896 42.7514C202.835 42.7514 203.715 42.5575 204.535 42.1697C205.371 41.782 206.049 41.2227 206.571 40.4918C207.093 39.761 207.354 38.8736 207.354 37.8295V34.9659C207.026 35.1001 206.676 35.2269 206.303 35.3462C205.945 35.4656 205.557 35.5774 205.139 35.6818C204.737 35.7862 204.304 35.8832 203.842 35.9727C203.394 36.0621 202.925 36.1442 202.432 36.2188C201.478 36.3679 200.695 36.614 200.083 36.957C199.487 37.2852 199.039 37.6953 198.741 38.1875C198.458 38.6648 198.316 39.2017 198.316 39.7983C198.316 40.7528 198.652 41.4837 199.323 41.9908C199.994 42.4979 200.851 42.7514 201.896 42.7514ZM237.864 30.6705V50H225.515V15.6364H237.238V22.169H237.596C238.342 19.9915 239.654 18.2837 241.533 17.0458C243.428 15.8079 245.635 15.1889 248.156 15.1889C250.587 15.1889 252.697 15.7482 254.487 16.8668C256.292 17.9705 257.686 19.4918 258.67 21.4308C259.67 23.3697 260.162 25.5845 260.147 28.0753V50H247.798V30.6705C247.813 28.9702 247.38 27.6353 246.5 26.6658C245.635 25.6964 244.427 25.2116 242.876 25.2116C241.862 25.2116 240.974 25.4354 240.213 25.8828C239.468 26.3153 238.893 26.9418 238.491 27.7621C238.088 28.5675 237.879 29.5369 237.864 30.6705ZM282.799 50.6264C279.07 50.6264 275.878 49.8881 273.224 48.4116C270.569 46.9201 268.533 44.8469 267.116 42.1921C265.699 39.5224 264.991 36.4276 264.991 32.9077C264.991 29.3878 265.699 26.3004 267.116 23.6456C268.533 20.9759 270.569 18.9027 273.224 17.4261C275.878 15.9347 279.07 15.1889 282.799 15.1889C286.17 15.1889 289.085 15.8004 291.546 17.0234C294.022 18.2315 295.939 19.9467 297.296 22.169C298.653 24.3764 299.339 26.9716 299.354 29.9545H287.9C287.736 28.1499 287.214 26.7777 286.334 25.8381C285.469 24.8835 284.35 24.4062 282.978 24.4062C281.904 24.4062 280.964 24.7195 280.159 25.3459C279.354 25.9574 278.727 26.8896 278.28 28.1424C277.832 29.3803 277.608 30.9389 277.608 32.8182C277.608 34.6974 277.832 36.2635 278.28 37.5163C278.727 38.7543 279.354 39.6864 280.159 40.3129C280.964 40.9244 281.904 41.2301 282.978 41.2301C283.888 41.2301 284.693 41.0213 285.394 40.6037C286.095 40.1712 286.662 39.5447 287.094 38.7244C287.542 37.8892 287.81 36.875 287.9 35.6818H299.354C299.309 38.7095 298.616 41.3494 297.274 43.6016C295.931 45.8388 294.03 47.5689 291.569 48.7919C289.123 50.0149 286.199 50.6264 282.799 50.6264ZM320.915 50.6264C317.246 50.6264 314.084 49.9254 311.43 48.5234C308.79 47.1065 306.754 45.0781 305.322 42.4382C303.905 39.7834 303.197 36.6065 303.197 32.9077C303.197 29.358 303.913 26.2557 305.344 23.6009C306.776 20.946 308.797 18.8803 311.407 17.4038C314.017 15.9272 317.097 15.1889 320.647 15.1889C323.242 15.1889 325.591 15.5916 327.694 16.397C329.797 17.2024 331.594 18.3732 333.086 19.9094C334.577 21.4308 335.726 23.2802 336.531 25.4577C337.337 27.6353 337.739 30.0888 337.739 32.8182V35.6818H307.045V28.8807H326.374C326.359 27.8963 326.106 27.0312 325.614 26.2855C325.136 25.5249 324.487 24.9357 323.667 24.5181C322.862 24.0856 321.945 23.8693 320.915 23.8693C319.916 23.8693 318.999 24.0856 318.164 24.5181C317.328 24.9357 316.657 25.5174 316.15 26.2631C315.658 27.0089 315.397 27.8814 315.367 28.8807V36.2188C315.367 37.3224 315.598 38.3068 316.061 39.1719C316.523 40.0369 317.187 40.7156 318.052 41.2077C318.917 41.6999 319.961 41.946 321.184 41.946C322.034 41.946 322.81 41.8267 323.511 41.5881C324.226 41.3494 324.838 41.0064 325.345 40.5589C325.852 40.0966 326.225 39.5447 326.464 38.9034H337.739C337.351 41.2898 336.434 43.3629 334.987 45.1229C333.541 46.8679 331.624 48.2251 329.238 49.1946C326.866 50.1491 324.092 50.6264 320.915 50.6264Z" fill="black"/>
<rect y="4" width="83" height="46" rx="4" fill="url(#paint0_linear_147_4)"/>
<defs>
<linearGradient id="paint0_linear_147_4" x1="41.5" y1="4" x2="41.5" y2="50" gradientUnits="userSpaceOnUse">
<stop offset="0.525942" stop-color="#172554"/>
<stop offset="0.526042" stop-color="#1E40AF"/>
</linearGradient>
</defs>
</svg>
